<svg xmlns="http://www.w3.org/2000/svg" viewBox="0 0 100 100">
  <defs>
    <radialGradient id="bg_b" cx="50%" cy="50%" r="50%">
      <stop offset="0%" stop-color="#0f172a"/>
      <stop offset="100%" stop-color="#020617"/>
    </radialGradient>
    <linearGradient id="gold" x1="0%" y1="0%" x2="100%" y2="100%">
      <stop offset="0%" stop-color="#fef08a"/>
      <stop offset="100%" stop-color="#eab308"/>
    </linearGradient>
  </defs>
  <circle cx="50" cy="50" r="48" fill="url(#bg_b)" stroke="#38bdf8" stroke-width="3"/>
  <!-- Penachos de orejas -->
  <polygon points="32,24 40,36 28,38" fill="#475569" stroke="#1e293b" stroke-width="1.5"/>
  <polygon points="68,24 60,36 72,38" fill="#475569" stroke="#1e293b" stroke-width="1.5"/>
  <!-- Cuerpo del Búho -->
  <ellipse cx="50" cy="56" rx="26" ry="24" fill="#64748b" stroke="#334155" stroke-width="2"/>
  <!-- Grandes Ojos hipnóticos de estratega -->
  <circle cx="39" cy="48" r="11" fill="#fef08a" stroke="#ca8a04" stroke-width="2"/>
  <circle cx="39" cy="48" r="6" fill="#0f172a"/>
  <circle cx="37" cy="46" r="2" fill="#fff"/>
  <circle cx="61" cy="48" r="11" fill="#fef08a" stroke="#ca8a04" stroke-width="2"/>
  <circle cx="61" cy="48" r="6" fill="#0f172a"/>
  <circle cx="59" cy="46" r="2" fill="#fff"/>
  <!-- Pico -->
  <polygon points="47,54 53,54 50,62" fill="#f59e0b" stroke="#b45309" stroke-width="1"/>
  <!-- Plumaje en pecho (como naipes) -->
  <path d="M42 66 Q50 70 58 66" stroke="#94a3b8" stroke-width="2" fill="none"/>
  <path d="M45 71 Q50 75 55 71" stroke="#94a3b8" stroke-width="2" fill="none"/>
</svg>