<svg xmlns="http://www.w3.org/2000/svg" viewBox="0 0 100 100">
  <defs>
    <radialGradient id="bg" cx="50%" cy="50%" r="50%">
      <stop offset="0%" stop-color="#3d210f"/>
      <stop offset="100%" stop-color="#120803"/>
    </radialGradient>
    <linearGradient id="gold" x1="0%" y1="0%" x2="100%" y2="100%">
      <stop offset="0%" stop-color="#fef08a"/>
      <stop offset="50%" stop-color="#eab308"/>
      <stop offset="100%" stop-color="#a16207"/>
    </linearGradient>
  </defs>
  <circle cx="50" cy="50" r="48" fill="url(#bg)" stroke="url(#gold)" stroke-width="3"/>
  <!-- Cuernos dorados -->
  <path d="M36 32 C28 15, 12 18, 16 34 C19 40, 28 38, 35 37" fill="none" stroke="url(#gold)" stroke-width="5" stroke-linecap="round"/>
  <path d="M64 32 C72 15, 88 18, 84 34 C81 40, 72 38, 65 37" fill="none" stroke="url(#gold)" stroke-width="5" stroke-linecap="round"/>
  <!-- Orejas -->
  <ellipse cx="23" cy="46" rx="9" ry="4" transform="rotate(-20 23 46)" fill="#78350f" stroke="#451a03" stroke-width="1.5"/>
  <ellipse cx="77" cy="46" rx="9" ry="4" transform="rotate(20 77 46)" fill="#78350f" stroke="#451a03" stroke-width="1.5"/>
  <!-- Cabeza -->
  <path d="M35 34 Q50 30 65 34 Q70 55 58 75 Q50 82 42 75 Q30 55 35 34 Z" fill="#92400e" stroke="#451a03" stroke-width="2"/>
  <!-- Frente blanca/mancha -->
  <path d="M46 33 Q50 32 54 33 Q55 52 50 58 Q45 52 46 33 Z" fill="#fef3c7"/>
  <!-- Ojos pícaros con pupilas horizontales de chivo -->
  <ellipse cx="40" cy="48" rx="4.5" ry="3.5" fill="#fef08a"/>
  <line x1="37" y1="48" x2="43" y2="48" stroke="#000" stroke-width="2" stroke-linecap="round"/>
  <ellipse cx="60" cy="48" rx="4.5" ry="3.5" fill="#fef08a"/>
  <line x1="57" y1="48" x2="63" y2="48" stroke="#000" stroke-width="2" stroke-linecap="round"/>
  <!-- Hocico -->
  <ellipse cx="50" cy="68" rx="8" ry="5.5" fill="#451a03"/>
  <circle cx="47" cy="67" r="1.2" fill="#000"/>
  <circle cx="53" cy="67" r="1.2" fill="#000"/>
  <!-- Barba chivo -->
  <path d="M46 76 L50 90 L54 76 Z" fill="#fef3c7" stroke="#d97706" stroke-width="1"/>
  <!-- Lentes de sol o estrella caroreña -->
  <polygon points="50,22 52,26 56,27 53,30 54,34 50,32 46,34 47,30 44,27 48,26" fill="url(#gold)"/>
</svg>